<mxfile host="app.diagrams.net" modified="2024-06-12T07:56:11.296Z" agent="Mozilla/5.0 (Macintosh; Intel Mac OS X 10_15_7) AppleWebKit/537.36 (KHTML, like Gecko) Chrome/125.0.0.0 Safari/537.36" version="24.4.13" etag="6OsKjb8MvBt71RVTG3te" type="github">
  <diagram name="第 1 页" id="1VtuawKiRyLLdD8fV5gA">
    <mxGraphModel>
      <root>
        <mxCell id="0" />
        <mxCell id="1" parent="0" />
      </root>
    </mxGraphModel>
  </diagram>
</mxfile>
